<svg xmlns="http://www.w3.org/2000/svg" width="20" height="21" viewBox="0 0 20 21" fill="none">
<path fill-rule="evenodd" clip-rule="evenodd" d="M9.66109 2.73632C9.85709 2.57357 10.1429 2.57357 10.3389 2.73632C12.2777 4.34618 14.7315 5.35723 17.4166 5.48576C17.658 5.49732 17.8641 5.67164 17.8957 5.91119C17.9645 6.43104 18 6.9614 18 7.50004C18 12.6625 14.7401 17.0635 10.1665 18.757C10.0593 18.7967 9.94102 18.7967 9.83378 18.757C5.26004 17.0636 2 12.6625 2 7.49992C2 6.96132 2.03548 6.43101 2.10424 5.91119C2.13593 5.67165 2.34202 5.49732 2.58337 5.48576C5.2685 5.35723 7.72231 4.34618 9.66109 2.73632ZM13.8566 8.69088C14.1002 8.3559 14.0261 7.88683 13.6911 7.6432C13.3561 7.39958 12.8871 7.47364 12.6434 7.80863L9.15969 12.5988L7.28033 10.7194C6.98744 10.4265 6.51256 10.4265 6.21967 10.7194C5.92678 11.0123 5.92678 11.4872 6.21967 11.7801L8.71967 14.2801C8.87477 14.4352 9.08999 14.5146 9.30867 14.4975C9.52734 14.4803 9.72754 14.3683 9.85655 14.1909L13.8566 8.69088Z" fill="#007E5E"/>
</svg>