<svg width="16" height="20" viewBox="0 0 16 20" fill="none" xmlns="http://www.w3.org/2000/svg">
<path fill-rule="evenodd" clip-rule="evenodd" d="M7.66109 4.12076C7.85709 3.95975 8.1429 3.95975 8.33891 4.12076C10.2777 5.71345 12.7315 6.71372 15.4166 6.84088C15.658 6.85231 15.8641 7.02478 15.8957 7.26177C15.9645 7.77608 16 8.30078 16 8.83368C16 13.941 12.7401 18.2951 8.16655 19.9705C8.05931 20.0098 7.94102 20.0098 7.83378 19.9705C3.26004 18.2952 0 13.9411 0 8.83356C0 8.3007 0.0354836 7.77605 0.10424 7.26177C0.135926 7.02478 0.342016 6.85231 0.583373 6.84088C3.2685 6.71372 5.72231 5.71346 7.66109 4.12076ZM11.8566 10.0118C12.1002 9.6804 12.0261 9.21634 11.6911 8.97531C11.3561 8.73428 10.8871 8.80756 10.6434 9.13897L7.15969 13.878L5.28033 12.0187C4.98744 11.729 4.51256 11.729 4.21967 12.0187C3.92678 12.3085 3.92678 12.7783 4.21967 13.0681L6.71967 15.5414C6.87477 15.6949 7.08999 15.7734 7.30867 15.7565C7.52734 15.7395 7.72754 15.6287 7.85655 15.4532L11.8566 10.0118Z" fill="#848F9B"/>
</svg>
