<svg width="18" height="18" viewBox="0 0 21 21" fill="none" xmlns="http://www.w3.org/2000/svg">
<path d="M14.862 3.48676L16.549 1.79876C16.9007 1.44708 17.3777 1.24951 17.875 1.24951C18.3723 1.24951 18.8493 1.44708 19.201 1.79876C19.5527 2.15044 19.7502 2.62741 19.7502 3.12476C19.7502 3.62211 19.5527 4.09908 19.201 4.45076L8.582 15.0698C8.05332 15.5981 7.40137 15.9865 6.685 16.1998L4 16.9998L4.8 14.3148C5.01328 13.5984 5.40163 12.9464 5.93 12.4178L14.862 3.48676ZM14.862 3.48676L17.5 6.12476M16 12.9998V17.7498C16 18.3465 15.7629 18.9188 15.341 19.3407C14.919 19.7627 14.3467 19.9998 13.75 19.9998H3.25C2.65326 19.9998 2.08097 19.7627 1.65901 19.3407C1.23705 18.9188 1 18.3465 1 17.7498V7.24976C1 6.65302 1.23705 6.08073 1.65901 5.65877C2.08097 5.23681 2.65326 4.99976 3.25 4.99976H8" stroke="#242B34" stroke-width="1.5" stroke-linecap="round" stroke-linejoin="round"/>
</svg>
