<svg width="27" height="27" viewBox="0 0 27 27" fill="none" xmlns="http://www.w3.org/2000/svg">
<rect width="27" height="27" rx="13.5" fill="#EEEEEE"/>
<path d="M22.808 27.6452C22.9544 27.6452 23.0995 27.6172 23.2348 27.5627C23.3701 27.5083 23.493 27.4285 23.5966 27.3279C23.7002 27.2273 23.7823 27.1078 23.8384 26.9764C23.8944 26.8449 23.9233 26.704 23.9233 26.5618L23.9232 20.7797C24.5182 21.0535 25.1747 21.1766 25.8318 21.1376C26.489 21.0987 27.1252 20.8989 27.6815 20.5569C28.2378 20.2149 28.696 19.7418 29.0135 19.1816C29.3311 18.6214 29.4976 17.9922 29.4976 17.3527C29.4976 16.7132 29.3311 16.0841 29.0135 15.5238C28.696 14.9636 28.2378 14.4905 27.6815 14.1485C27.1252 13.8065 26.489 13.6067 25.8318 13.5678C25.1747 13.5288 24.5182 13.6519 23.9232 13.9257L23.9233 8.14365C23.9233 8.00137 23.8944 7.86049 23.8384 7.72904C23.7823 7.59759 23.7002 7.47815 23.5966 7.37754C23.493 7.27694 23.3701 7.19713 23.2348 7.14269C23.0995 7.08824 22.9544 7.06022 22.808 7.06022L16.2982 7.06029C16.58 6.48232 16.7068 5.84451 16.6667 5.20617C16.6266 4.56784 16.4209 3.94973 16.0689 3.40934C15.7168 2.86895 15.2298 2.42383 14.6531 2.11539C14.0764 1.80695 13.4288 1.6452 12.7704 1.6452C12.1121 1.6452 11.4645 1.80695 10.8878 2.11539C10.3111 2.42383 9.82404 2.86895 9.47199 3.40934C9.11993 3.94973 8.91429 4.56784 8.87419 5.20617C8.83409 5.84451 8.96083 6.48232 9.24262 7.06029L2.73291 7.06022C2.43711 7.06022 2.15344 7.17436 1.94428 7.37754C1.73512 7.58072 1.61761 7.85629 1.61761 8.14363L1.61753 13.9257C2.21251 13.6519 2.86908 13.5288 3.52619 13.5678C4.18329 13.6067 4.81959 13.8065 5.37587 14.1485C5.93216 14.4905 6.39037 14.9636 6.70789 15.5238C7.0254 16.0841 7.1919 16.7132 7.1919 17.3527C7.1919 17.9922 7.0254 18.6214 6.70789 19.1816C6.39037 19.7418 5.93216 20.2149 5.37587 20.5569C4.81959 20.8989 4.18329 21.0987 3.52619 21.1376C2.86908 21.1766 2.21251 21.0535 1.61753 20.7797L1.61761 26.5618C1.61761 26.8491 1.73511 27.1247 1.94427 27.3279C2.15343 27.5311 2.4371 27.6452 2.73289 27.6452L22.808 27.6452Z" transform="translate(5 4) scale(0.57)" stroke="#4c4357" stroke-width="3" stroke-linecap="round" stroke-linejoin="round"/>
</svg>
