<svg width="610" height="35" viewBox="0 0 610 35" fill="none" xmlns="http://www.w3.org/2000/svg">
<g filter="url(#filter0_d)">
<rect width="690" height="34" transform="translate(-80)" fill="white"/>
<rect x="-80" y="3" width="551" height="28" rx="14" fill="#EFF1F4"/>
<path d="M453 10.629L454.311 14.6941L454.423 15.0414L454.788 15.0406L459.059 15.0313L455.598 17.5343L455.302 17.7481L455.416 18.095L456.745 22.1543L453.295 19.6361L453 19.421L452.705 19.6361L449.255 22.1543L450.584 18.095L450.698 17.7481L450.402 17.5343L446.941 15.0313L451.212 15.0406L451.577 15.0414L451.689 14.6941L453 10.629Z" stroke="#4B4D52"/>
<path d="M492.5 24C496.642 24 500 20.6421 500 16.5C500 12.3579 496.642 9 492.5 9C488.358 9 485 12.3579 485 16.5C485 20.6421 488.358 24 492.5 24Z" fill="#A2A2A2"/>
<path opacity="0.6" fill-rule="evenodd" clip-rule="evenodd" d="M496.672 13.3095C497.267 13.0966 497.82 12.8382 498.318 12.5395C498.451 12.4598 498.581 12.3764 498.707 12.2894C498.519 12.0125 498.313 11.7488 498.09 11.5C497.606 11.8244 497.045 12.1065 496.424 12.3357C496.075 11.1659 495.584 10.1677 494.995 9.42498C494.214 9.14974 493.375 9 492.5 9C491.625 9 490.786 9.14974 490.005 9.42498C489.416 10.1677 488.925 11.1659 488.576 12.3357C487.955 12.1065 487.394 11.8244 486.91 11.5C486.687 11.7488 486.481 12.0125 486.293 12.2894C486.419 12.3764 486.549 12.4598 486.682 12.5395C487.18 12.8382 487.733 13.0966 488.328 13.3095C488.148 14.1481 488.037 15.0533 488.008 16H485.016C485.006 16.1653 485 16.332 485 16.5C485 16.668 485.006 16.8347 485.016 17H488.008C488.037 17.9467 488.148 18.8519 488.328 19.6905C487.733 19.9034 487.18 20.1618 486.682 20.4605C486.549 20.5402 486.419 20.6236 486.293 20.7106C486.481 20.9875 486.687 21.2512 486.91 21.5C487.394 21.1756 487.955 20.8935 488.576 20.6643C488.925 21.8341 489.416 22.8323 490.005 23.575C490.786 23.8503 491.625 24 492.5 24C493.375 24 494.214 23.8503 494.995 23.575C495.584 22.8323 496.075 21.8341 496.424 20.6643C497.045 20.8935 497.606 21.1756 498.09 21.5C498.313 21.2512 498.519 20.9875 498.707 20.7106C498.581 20.6236 498.451 20.5402 498.318 20.4605C497.82 20.1618 497.267 19.9034 496.672 19.6905C496.852 18.8519 496.963 17.9467 496.992 17H499.984C499.994 16.8347 500 16.668 500 16.5C500 16.332 499.994 16.1653 499.984 16H496.992C496.963 15.0533 496.852 14.1481 496.672 13.3095ZM495.992 17C495.964 17.8486 495.866 18.654 495.712 19.3964C494.863 19.1771 493.949 19.0439 493 19.0091V17H495.992ZM495.469 20.3664C494.704 20.1682 493.872 20.0443 493 20.0098V23.9094C493.58 23.703 494.223 23.1295 494.798 22.0425C495.057 21.5541 495.284 20.9904 495.469 20.3664ZM492 23.9094V20.0098C491.128 20.0443 490.296 20.1682 489.531 20.3664C489.716 20.9904 489.943 21.5541 490.202 22.0425C490.777 23.1295 491.42 23.703 492 23.9094ZM489.288 19.3964C490.137 19.1771 491.051 19.0439 492 19.0091V17H489.008C489.036 17.8486 489.134 18.654 489.288 19.3964ZM489.288 13.6036C489.134 14.346 489.036 15.1514 489.008 16H492V13.9909C491.051 13.9561 490.137 13.8229 489.288 13.6036ZM492 12.9902C491.128 12.9557 490.296 12.8318 489.531 12.6336C489.716 12.0096 489.943 11.4459 490.202 10.9575C490.777 9.8705 491.42 9.29702 492 9.09061V12.9902ZM493 12.9902V9.09061C493.58 9.29702 494.223 9.8705 494.798 10.9575C495.057 11.4459 495.284 12.0096 495.469 12.6336C494.704 12.8318 493.872 12.9557 493 12.9902ZM493 13.9909C493.949 13.9561 494.863 13.8229 495.712 13.6036C495.866 14.346 495.964 15.1514 495.992 16H493V13.9909Z" fill="white"/>

<path d="M22.808 27.6452C22.9544 27.6452 23.0995 27.6172 23.2348 27.5627C23.3701 27.5083 23.493 27.4285 23.5966 27.3279C23.7002 27.2273 23.7823 27.1078 23.8384 26.9764C23.8944 26.8449 23.9233 26.704 23.9233 26.5618L23.9232 20.7797C24.5182 21.0535 25.1747 21.1766 25.8318 21.1376C26.489 21.0987 27.1252 20.8989 27.6815 20.5569C28.2378 20.2149 28.696 19.7418 29.0135 19.1816C29.3311 18.6214 29.4976 17.9922 29.4976 17.3527C29.4976 16.7132 29.3311 16.0841 29.0135 15.5238C28.696 14.9636 28.2378 14.4905 27.6815 14.1485C27.1252 13.8065 26.489 13.6067 25.8318 13.5678C25.1747 13.5288 24.5182 13.6519 23.9232 13.9257L23.9233 8.14365C23.9233 8.00137 23.8944 7.86049 23.8384 7.72904C23.7823 7.59759 23.7002 7.47815 23.5966 7.37754C23.493 7.27694 23.3701 7.19713 23.2348 7.14269C23.0995 7.08824 22.9544 7.06022 22.808 7.06022L16.2982 7.06029C16.58 6.48232 16.7068 5.84451 16.6667 5.20617C16.6266 4.56784 16.4209 3.94973 16.0689 3.40934C15.7168 2.86895 15.2298 2.42383 14.6531 2.11539C14.0764 1.80695 13.4288 1.6452 12.7704 1.6452C12.1121 1.6452 11.4645 1.80695 10.8878 2.11539C10.3111 2.42383 9.82404 2.86895 9.47199 3.40934C9.11993 3.94973 8.91429 4.56784 8.87419 5.20617C8.83409 5.84451 8.96083 6.48232 9.24262 7.06029L2.73291 7.06022C2.43711 7.06022 2.15344 7.17436 1.94428 7.37754C1.73512 7.58072 1.61761 7.85629 1.61761 8.14363L1.61753 13.9257C2.21251 13.6519 2.86908 13.5288 3.52619 13.5678C4.18329 13.6067 4.81959 13.8065 5.37587 14.1485C5.93216 14.4905 6.39037 14.9636 6.70789 15.5238C7.0254 16.0841 7.1919 16.7132 7.1919 17.3527C7.1919 17.9922 7.0254 18.6214 6.70789 19.1816C6.39037 19.7418 5.93216 20.2149 5.37587 20.5569C4.81959 20.8989 4.18329 21.0987 3.52619 21.1376C2.86908 21.1766 2.21251 21.0535 1.61753 20.7797L1.61761 26.5618C1.61761 26.8491 1.73511 27.1247 1.94427 27.3279C2.15343 27.5311 2.4371 27.6452 2.73289 27.6452L22.808 27.6452Z" transform="translate(514 8) scale(0.57)" stroke="#4c4357" stroke-width="3" stroke-linecap="round" stroke-linejoin="round"/>

<rect width="28" height="28" transform="translate(543 3)" fill="white"/>
<path d="M557 5C550.376 5 545 10.376 545 17C545 23.624 550.376 29 557 29C563.624 29 569 23.624 569 17C569 10.376 563.624 5 557 5ZM564.632 22.796C562.916 20.708 558.752 20 557 20C555.248 20 551.084 20.708 549.368 22.796C548.144 21.188 547.4 19.184 547.4 17C547.4 11.708 551.708 7.4 557 7.4C562.292 7.4 566.6 11.708 566.6 17C566.6 19.184 565.856 21.188 564.632 22.796ZM557 9.8C554.672 9.8 552.8 11.672 552.8 14C552.8 16.328 554.672 18.2 557 18.2C559.328 18.2 561.2 16.328 561.2 14C561.2 11.672 559.328 9.8 557 9.8Z" fill="#B6B9BE"/>
<path d="M591 12.5C591 13.3284 590.328 14 589.5 14C588.672 14 588 13.3284 588 12.5C588 11.6716 588.672 11 589.5 11C590.328 11 591 11.6716 591 12.5Z" fill="#5F646A"/>
<path d="M591 17.5C591 18.3284 590.328 19 589.5 19C588.672 19 588 18.3284 588 17.5C588 16.6716 588.672 16 589.5 16C590.328 16 591 16.6716 591 17.5Z" fill="#5F646A"/>
<path d="M591 22.5C591 23.3284 590.328 24 589.5 24C588.672 24 588 23.3284 588 22.5C588 21.6716 588.672 21 589.5 21C590.328 21 591 21.6716 591 22.5Z" fill="#5F646A"/>
</g>
<defs>
<filter id="filter0_d" x="-80" y="0" width="690" height="35" filterUnits="userSpaceOnUse" color-interpolation-filters="sRGB">
<feFlood flood-opacity="0" result="BackgroundImageFix"/>
<feColorMatrix in="SourceAlpha" type="matrix" values="0 0 0 0 0 0 0 0 0 0 0 0 0 0 0 0 0 0 127 0"/>
<feOffset dy="1"/>
<feColorMatrix type="matrix" values="0 0 0 0 0 0 0 0 0 0 0 0 0 0 0 0 0 0 0.06 0"/>
<feBlend mode="normal" in2="BackgroundImageFix" result="effect1_dropShadow"/>
<feBlend mode="normal" in="SourceGraphic" in2="effect1_dropShadow" result="shape"/>
</filter>
</defs>
</svg>
