<svg width="22" height="29" viewBox="0 0 22 29" fill="none" xmlns="http://www.w3.org/2000/svg">
<path d="M21.009 20.2205C21.1281 20.0537 21.206 19.861 21.2363 19.6583C21.2666 19.4556 21.2485 19.2486 21.1835 19.0543L18.245 10.2388L18.245 1.42323C18.244 1.08015 18.1072 0.751411 17.8646 0.508813C17.6221 0.266216 17.2933 0.129474 16.9502 0.128454L4.89317 0.137637C4.72225 0.138334 4.55316 0.172761 4.39558 0.238944C4.238 0.305128 4.09504 0.401765 3.97488 0.523316C3.735 0.765232 3.59978 1.09173 3.59839 1.43242L3.59839 10.2479L0.659881 19.0635C0.592461 19.2544 0.570635 19.4585 0.596146 19.6594C0.621657 19.8603 0.693798 20.0524 0.806807 20.2205L0.953732 20.3674C1.07389 20.489 1.21685 20.5856 1.37443 20.6518C1.53201 20.718 1.7011 20.7524 1.87202 20.7531L9.59478 20.7439L9.59478 27.4657C9.5958 27.8088 9.73254 28.1376 9.97514 28.3802C10.2177 28.6228 10.5465 28.7595 10.8896 28.7605C11.2326 28.7595 11.5614 28.6228 11.804 28.3802C12.0466 28.1376 12.1833 27.8088 12.1843 27.4657L12.2027 20.7623L19.9255 20.7715C20.1373 20.775 20.3468 20.7266 20.5357 20.6306C20.7246 20.5346 20.8871 20.3938 21.009 20.2205ZM3.6994 18.1727L6.13285 10.854C6.18365 10.7255 6.20861 10.5882 6.20631 10.45L6.18795 2.73638L15.6279 2.73638L15.6187 10.4591C15.6147 10.5937 15.6365 10.7277 15.683 10.854L18.1073 18.1635L3.6994 18.1727Z" fill="white"/>
</svg>
