<svg width="334" height="265" viewBox="0 0 334 265" fill="none" xmlns="http://www.w3.org/2000/svg">
<mask id="mask0_2799_5361" style="mask-type:alpha" maskUnits="userSpaceOnUse" x="0" y="0" width="334" height="265">
<rect x="0.5" y="0.5" width="333" height="264" rx="3.5" fill="#D9D9D9" stroke="black"/>
</mask>
<g mask="url(#mask0_2799_5361)">
<path d="M0 4C0 1.79086 1.79086 0 4 0H330C332.209 0 334 1.79086 334 4V261C334 263.209 332.209 265 330 265H4.00001C1.79087 265 0 263.209 0 261V4Z" fill="#274368"/>
<path d="M0 268.435L0.000277357 152.459C114 123.126 196.31 101.915 226.151 94.1613C260.624 85.2039 261.718 86.7843 283.606 107.861L334 155.741V275H0.000416036L0 268.435Z" fill="#14537E"/>
<path d="M272.734 52.3234C272.802 52.095 272.992 51.9192 273.232 51.8621L286.519 48.6951C286.758 48.6381 287.011 48.7085 287.182 48.8798L296.653 58.3898C296.824 58.5611 296.887 58.8074 296.818 59.0358L293.002 71.7128C292.933 71.9412 292.743 72.117 292.504 72.174L279.217 75.3411C278.977 75.3981 278.725 75.3277 278.554 75.1564L269.082 65.6464C268.912 65.475 268.849 65.2288 268.918 65.0004L272.734 52.3234Z" stroke="#FFC857"/>
</g>
</svg>
