<svg width="537" height="230" viewBox="0 0 537 230" fill="none" xmlns="http://www.w3.org/2000/svg">
<path d="M0 0H537V226C537 228.209 535.209 230 533 230H4C1.79086 230 0 228.209 0 226V0Z" fill="#274368"/>
<path fill-rule="evenodd" clip-rule="evenodd" d="M0 145.098L0.000115054 196.5V219H0V230H534C535.657 230 537 228.657 537 227V219L386.641 67.2384L385.937 66.5342C367.346 47.9407 366.037 46.6314 336.066 54.7173C309.8 61.8039 100.347 118.288 0 145.098Z" fill="#14537E"/>
<path d="M445.716 76.1251C445.805 75.8194 446.05 75.5841 446.36 75.5078L463.558 71.2692C463.868 71.1928 464.195 71.287 464.416 71.5163L476.675 84.2441C476.896 84.4734 476.978 84.803 476.889 85.1086L471.95 102.075C471.861 102.381 471.615 102.616 471.305 102.692L454.107 106.931C453.797 107.007 453.47 106.913 453.249 106.684L440.99 93.956C440.769 93.7267 440.688 93.3972 440.777 93.0915L445.716 76.1251Z" stroke="#FFC857" stroke-width="2"/>
</svg>