<svg width="119" height="60" viewBox="0 0 119 60" fill="none" xmlns="http://www.w3.org/2000/svg">
<path d="M64 20H69.1755C70.4384 20 71.5603 20.2477 72.5413 20.7431C73.5222 21.2272 74.2833 21.9196 74.8246 22.8203C75.3658 23.7098 75.6364 24.74 75.6364 25.9109C75.6364 27.0818 75.3658 28.1176 74.8246 29.0183C74.2833 29.9077 73.5222 30.6002 72.5413 31.0955C71.5603 31.5797 70.4384 31.8217 69.1755 31.8217H64V20ZM69.074 29.964C69.9422 29.964 70.7033 29.8008 71.3573 29.4743C72.0226 29.1365 72.53 28.6636 72.8795 28.0557C73.2404 27.4364 73.4208 26.7215 73.4208 25.9109C73.4208 25.1002 73.2404 24.3909 72.8795 23.783C72.53 23.1637 72.0226 22.6909 71.3573 22.3643C70.7033 22.0266 69.9422 21.8577 69.074 21.8577H66.1987V29.964H69.074Z" fill="#0A1C2E"/>
<path d="M86.2609 27.3632C86.2609 27.5096 86.2497 27.7179 86.2271 27.9881H79.1404C79.2644 28.6524 79.5858 29.1815 80.1045 29.5756C80.6344 29.9584 81.2884 30.1498 82.0664 30.1498C83.0587 30.1498 83.8762 29.8233 84.5189 29.1703L85.6521 30.4707C85.2461 30.9548 84.7331 31.3207 84.1129 31.5684C83.4928 31.8161 82.7937 31.9399 82.0157 31.9399C81.0234 31.9399 80.1496 31.7429 79.3941 31.3489C78.6386 30.9548 78.0523 30.4088 77.6351 29.7107C77.2292 29.0014 77.0262 28.202 77.0262 27.3126C77.0262 26.4344 77.2235 25.6463 77.6182 24.9482C78.0241 24.2389 78.5823 23.6873 79.2926 23.2932C80.003 22.8991 80.8036 22.7021 81.6943 22.7021C82.5738 22.7021 83.3575 22.8991 84.0453 23.2932C84.7444 23.676 85.2856 24.222 85.669 24.9314C86.0636 25.6294 86.2609 26.44 86.2609 27.3632ZM81.6943 24.3909C81.0178 24.3909 80.4427 24.5936 79.9692 24.9989C79.5069 25.393 79.225 25.9221 79.1235 26.5864H84.2482C84.158 25.9334 83.8818 25.4042 83.4195 24.9989C82.9572 24.5936 82.3821 24.3909 81.6943 24.3909Z" fill="#0A1C2E"/>
<path d="M96.7823 27.3632C96.7823 27.5096 96.771 27.7179 96.7484 27.9881H89.6617C89.7858 28.6524 90.1071 29.1815 90.6258 29.5756C91.1557 29.9584 91.8097 30.1498 92.5877 30.1498C93.58 30.1498 94.3975 29.8233 95.0402 29.1703L96.1734 30.4707C95.7675 30.9548 95.2544 31.3207 94.6343 31.5684C94.0141 31.8161 93.315 31.9399 92.537 31.9399C91.5447 31.9399 90.6709 31.7429 89.9154 31.3489C89.16 30.9548 88.5736 30.4088 88.1564 29.7107C87.7505 29.0014 87.5475 28.202 87.5475 27.3126C87.5475 26.4344 87.7449 25.6463 88.1395 24.9482C88.5454 24.2389 89.1036 23.6873 89.8139 23.2932C90.5243 22.8991 91.3249 22.7021 92.2156 22.7021C93.0951 22.7021 93.8788 22.8991 94.5666 23.2932C95.2657 23.676 95.8069 24.222 96.1903 24.9314C96.5849 25.6294 96.7823 26.44 96.7823 27.3632ZM92.2156 24.3909C91.5391 24.3909 90.9641 24.5936 90.4905 24.9989C90.0282 25.393 89.7463 25.9221 89.6448 26.5864H94.7696C94.6794 25.9334 94.4031 25.4042 93.9408 24.9989C93.4785 24.5936 92.9035 24.3909 92.2156 24.3909Z" fill="#0A1C2E"/>
<path d="M103.819 22.7021C104.699 22.7021 105.483 22.8935 106.17 23.2763C106.869 23.6591 107.416 24.1995 107.811 24.8976C108.206 25.5956 108.403 26.4006 108.403 27.3126C108.403 28.2245 108.206 29.0352 107.811 29.7445C107.416 30.4425 106.869 30.9829 106.17 31.3657C105.483 31.7485 104.699 31.9399 103.819 31.9399C102.602 31.9399 101.638 31.5346 100.927 30.724V35.098H98.8131V22.8034H100.826V23.9856C101.175 23.5578 101.604 23.2369 102.111 23.023C102.63 22.8091 103.199 22.7021 103.819 22.7021ZM103.583 30.1329C104.361 30.1329 104.998 29.874 105.494 29.3561C106.001 28.8382 106.255 28.157 106.255 27.3126C106.255 26.4682 106.001 25.787 105.494 25.2691C104.998 24.7512 104.361 24.4923 103.583 24.4923C103.075 24.4923 102.619 24.6105 102.213 24.8469C101.807 25.0721 101.485 25.3986 101.249 25.8264C101.012 26.2543 100.893 26.7496 100.893 27.3126C100.893 27.8755 101.012 28.3709 101.249 28.7987C101.485 29.2266 101.807 29.5587 102.213 29.7951C102.619 30.0203 103.075 30.1329 103.583 30.1329Z" fill="#0A1C2E"/>
<path d="M110.611 20H112.81V29.964H119V31.8217H110.611V20Z" fill="#0A1C2E"/>
<g clip-path="url(#clip0_2482_114)">
<path fill-rule="evenodd" clip-rule="evenodd" d="M6.17655 39.1688V15.3478C6.17655 14.1448 6.82319 13.0104 7.87823 12.3917L28.2984 0.464045C29.3534 -0.154682 30.6467 -0.154682 31.7018 0.464045L52.1219 12.3573C53.177 12.9761 53.8236 14.1104 53.8236 15.3478V39.1688C53.8236 40.4063 53.177 41.5406 52.1219 42.1593L40.1918 49.1078L40.2082 49.1035L39.8933 49.2816L39.2408 49.6616C38.7957 49.9805 38.5065 50.4925 38.5065 51.0628V52.0253L38.4962 51.9807L38.4756 54.8439L38.5096 60L28.4545 54.1387C28.4019 54.1115 28.3499 54.0828 28.2984 54.0526L7.87823 42.1593C6.82319 41.5406 6.17655 40.4063 6.17655 39.1688ZM26.6622 16.4143C25.3008 15.0737 23.1227 15.0737 21.7613 16.4143C20.2979 17.8236 20.2979 20.161 21.7613 21.5703C23.1227 22.9109 25.3008 22.9109 26.6622 21.5703C26.7093 21.5249 26.7549 21.4786 26.7991 21.4313L36.1261 26.8636L36.1607 26.844C35.7456 28.106 36.0517 29.5527 37.0791 30.5421C38.4405 31.8827 40.6186 31.8827 41.98 30.5421C43.4434 29.1328 43.4434 26.7954 41.98 25.3861C40.6186 24.0455 38.4405 24.0455 37.0791 25.3861L37.0493 25.4151L37.0303 25.434L27.6351 19.9304C27.9648 18.7133 27.6405 17.3564 26.6622 16.4143ZM36.8084 31.2289L27.6525 36.5719C27.9559 37.7735 27.6264 39.1018 26.664 40.0286C25.3027 41.3692 23.1245 41.3692 21.7632 40.0286C20.2997 38.6193 20.2997 36.2819 21.7632 34.8726C23.1245 33.532 25.3027 33.532 26.664 34.8726C26.7264 34.9326 26.7861 34.9944 26.8432 35.0577L35.1067 30.2665L36.8084 31.2289Z" fill="#0A1C2E"/>
</g>
<defs>
<clipPath id="clip0_2482_114">
<rect width="60" height="60" fill="white" transform="matrix(-1 0 0 1 60 0)"/>
</clipPath>
</defs>
</svg>
