<svg width="294" height="265" viewBox="0 0 294 265" fill="none" xmlns="http://www.w3.org/2000/svg">
<path d="M0 4C0 1.79086 1.79086 0 4 0H290C292.209 0 294 1.79086 294 4V265H0V4Z" fill="#274368"/>
<path d="M0 259L0.000244141 153C100.347 126.191 172.8 106.804 199.067 99.7173C229.412 91.5305 230.375 92.9749 249.642 112.238L294 156V265H0.000366211L0 259Z" fill="#14537E"/>
<path d="M254.512 73.4928C254.579 73.2645 254.762 73.0886 254.994 73.0316L267.844 69.8646C268.076 69.8075 268.32 69.8779 268.485 70.0492L277.645 79.5593C277.81 79.7306 277.871 79.9768 277.804 80.2052L274.114 92.8822C274.047 93.1106 273.864 93.2864 273.632 93.3435L260.782 96.5105C260.55 96.5675 260.306 96.4972 260.141 96.3258L250.981 86.8158C250.816 86.6445 250.755 86.3983 250.822 86.1699L254.512 73.4928Z" stroke="#FFC857"/>
</svg>
