<svg width="24" height="24" viewBox="0 0 24 24" fill="none" xmlns="http://www.w3.org/2000/svg">
<path d="M4 14L3.375 12.625L2 12L3.375 11.375L4 10L4.625 11.375L6 12L4.625 12.625L4 14ZM7 20L6.05 17.95L4 17L6.05 16.05L7 14L7.95 16.05L10 17L7.95 17.95L7 20ZM7 10L6.05 7.95L4 7L6.05 6.05L7 4L7.95 6.05L10 7L7.95 7.95L7 10Z" fill="#242B34"/>
<path d="M13 18C12.4477 18 12 17.5523 12 17C12 16.4477 12.4477 16 13 16H20C20.5523 16 21 16.4477 21 17C21 17.5523 20.5523 18 20 18H13ZM13 13C12.4477 13 12 12.5523 12 12C12 11.4477 12.4477 11 13 11H20C20.5523 11 21 11.4477 21 12C21 12.5523 20.5523 13 20 13H13ZM13 8C12.4477 8 12 7.55228 12 7C12 6.44772 12.4477 6 13 6H20C20.5523 6 21 6.44772 21 7C21 7.55228 20.5523 8 20 8H13Z" fill="#242B34"/>
</svg>
