<svg width="24" height="24" viewBox="0 0 24 24" fill="none" xmlns="http://www.w3.org/2000/svg">
<path d="M0 12C0 5.37258 5.37258 0 12 0C18.6274 0 24 5.37258 24 12C24 18.6274 18.6274 24 12 24C5.37258 24 0 18.6274 0 12Z" fill="#C6E5F1"/>
<path d="M4.501 22C4.53313 20.0324 5.33734 18.1562 6.74018 16.7761C8.14302 15.3959 10.0321 14.6225 12 14.6225C13.9679 14.6225 15.857 15.3959 17.2598 16.7761C18.6627 18.1562 19.4669 20.0324 19.499 22M15.75 7.88202C15.75 8.87658 15.3549 9.83041 14.6516 10.5337C13.9484 11.2369 12.9946 11.632 12 11.632C11.0054 11.632 10.0516 11.2369 9.34835 10.5337C8.64509 9.83041 8.25 8.87658 8.25 7.88202C8.25 6.88746 8.64509 5.93363 9.34835 5.23037C10.0516 4.52711 11.0054 4.13202 12 4.13202C12.9946 4.13202 13.9484 4.52711 14.6516 5.23037C15.3549 5.93363 15.75 6.88746 15.75 7.88202Z" stroke="#0B4164" stroke-width="1.5" stroke-linecap="round" stroke-linejoin="round"/>
</svg>
