<svg width="25" height="24" viewBox="0 0 25 24" fill="none" xmlns="http://www.w3.org/2000/svg">
<path d="M4.5 14L3.875 12.625L2.5 12L3.875 11.375L4.5 10L5.125 11.375L6.5 12L5.125 12.625L4.5 14ZM7.5 20L6.55 17.95L4.5 17L6.55 16.05L7.5 14L8.45 16.05L10.5 17L8.45 17.95L7.5 20ZM7.5 10L6.55 7.95L4.5 7L6.55 6.05L7.5 4L8.45 6.05L10.5 7L8.45 7.95L7.5 10Z" fill="#242B34"/>
<path d="M13.5 18C12.9477 18 12.5 17.5523 12.5 17C12.5 16.4477 12.9477 16 13.5 16H20.5C21.0523 16 21.5 16.4477 21.5 17C21.5 17.5523 21.0523 18 20.5 18H13.5ZM13.5 13C12.9477 13 12.5 12.5523 12.5 12C12.5 11.4477 12.9477 11 13.5 11H20.5C21.0523 11 21.5 11.4477 21.5 12C21.5 12.5523 21.0523 13 20.5 13H13.5ZM13.5 8C12.9477 8 12.5 7.55228 12.5 7C12.5 6.44772 12.9477 6 13.5 6H20.5C21.0523 6 21.5 6.44772 21.5 7C21.5 7.55228 21.0523 8 20.5 8H13.5Z" fill="#242B34"/>
</svg>
