<svg width="24" height="24" viewBox="0 0 24 24" fill="none" xmlns="http://www.w3.org/2000/svg">
<path fill-rule="evenodd" clip-rule="evenodd" d="M3.75 5.06035V17.7611C4.47281 17.5903 5.22624 17.5 6 17.5C8.26223 17.5 10.3458 18.2713 12 19.5643C13.6542 18.2713 15.7378 17.5 18 17.5C18.7738 17.5 19.5272 17.5903 20.25 17.7611V5.06035C19.5355 4.85829 18.7809 4.75 18 4.75C15.8865 4.75 13.9603 5.54373 12.5002 6.85053C12.2154 7.1054 11.7846 7.1054 11.4998 6.85053C10.0397 5.54373 8.11345 4.75 6 4.75C5.21909 4.75 4.46454 4.85829 3.75 5.06035ZM2.75007 3.80499C3.76756 3.44535 4.86178 3.25 6 3.25C8.26223 3.25 10.3458 4.02126 12 5.31429C13.6542 4.02126 15.7378 3.25 18 3.25C19.1382 3.25 20.2324 3.44535 21.2499 3.80499C21.5496 3.91091 21.75 4.19425 21.75 4.51212V18.7621C21.75 19.0056 21.6318 19.2339 21.433 19.3745C21.2343 19.515 20.9796 19.5504 20.7501 19.4692C19.8909 19.1656 18.9656 19 18 19C15.8865 19 13.9603 19.7937 12.5002 21.1005C12.2154 21.3554 11.7846 21.3554 11.4998 21.1005C10.0397 19.7937 8.11345 19 6 19C5.03441 19 4.10911 19.1656 3.24993 19.4692C3.02039 19.5504 2.76574 19.515 2.56696 19.3745C2.36818 19.2339 2.25 19.0056 2.25 18.7621V4.51212C2.25 4.19425 2.45037 3.91091 2.75007 3.80499ZM17.5 10.75H12.122C11.8131 11.6239 10.9797 12.25 10 12.25C9.02034 12.25 8.18691 11.6239 7.87803 10.75H6.5C6.08579 10.75 5.75 10.4142 5.75 10C5.75 9.58579 6.08579 9.25 6.5 9.25H7.87803C8.18691 8.37611 9.02034 7.75 10 7.75C10.9797 7.75 11.8131 8.37611 12.122 9.25H17.5C17.9142 9.25 18.25 9.58579 18.25 10C18.25 10.4142 17.9142 10.75 17.5 10.75ZM9.25 10C9.25 9.58579 9.58579 9.25 10 9.25C10.4142 9.25 10.75 9.58579 10.75 10C10.75 10.4142 10.4142 10.75 10 10.75C9.58579 10.75 9.25 10.4142 9.25 10ZM11.878 13.75H6.5C6.08579 13.75 5.75 14.0858 5.75 14.5C5.75 14.9142 6.08579 15.25 6.5 15.25H11.878C12.1869 16.1239 13.0203 16.75 14 16.75C14.9797 16.75 15.8131 16.1239 16.122 15.25H17.5C17.9142 15.25 18.25 14.9142 18.25 14.5C18.25 14.0858 17.9142 13.75 17.5 13.75H16.122C15.8131 12.8761 14.9797 12.25 14 12.25C13.0203 12.25 12.1869 12.8761 11.878 13.75ZM14 15.25C14.4142 15.25 14.75 14.9142 14.75 14.5C14.75 14.0858 14.4142 13.75 14 13.75C13.5858 13.75 13.25 14.0858 13.25 14.5C13.25 14.9142 13.5858 15.25 14 15.25Z" fill="#242B34"/>
</svg>
