<svg width="20" height="20" viewBox="0 0 20 20" fill="none" xmlns="http://www.w3.org/2000/svg">
<path fill-rule="evenodd" clip-rule="evenodd" d="M10 1.875C10.3452 1.875 10.625 2.15482 10.625 2.5V10C10.625 10.3452 10.3452 10.625 10 10.625C9.65483 10.625 9.375 10.3452 9.375 10V2.5C9.375 2.15482 9.65483 1.875 10 1.875ZM5.13861 4.25472C5.38269 4.4988 5.38269 4.89453 5.13861 5.13861C4.17714 6.1001 3.52237 7.3251 3.2571 8.65872C2.99183 9.99234 3.12798 11.3747 3.64834 12.6309C4.16869 13.8871 5.04988 14.9609 6.18047 15.7163C7.31105 16.4717 8.64026 16.8749 10 16.8749C11.3597 16.8749 12.689 16.4717 13.8195 15.7163C14.9501 14.9609 15.8313 13.8871 16.3517 12.6309C16.872 11.3747 17.0082 9.99234 16.7429 8.65872C16.4776 7.3251 15.8229 6.1001 14.8614 5.13861C14.6173 4.89453 14.6173 4.4988 14.8614 4.25472C15.1055 4.01065 15.5012 4.01065 15.7453 4.25473C16.8816 5.39103 17.6554 6.83877 17.9689 8.41486C18.2824 9.99096 18.1215 11.6246 17.5065 13.1093C16.8915 14.5939 15.8501 15.8629 14.514 16.7556C13.1779 17.6484 11.607 18.1249 10 18.1249C8.39303 18.1249 6.82215 17.6484 5.48601 16.7556C4.14986 15.8629 3.10846 14.5939 2.49349 13.1093C1.87853 11.6246 1.71762 9.99096 2.03112 8.41486C2.34461 6.83877 3.11843 5.39103 4.25473 4.25473C4.4988 4.01065 4.89453 4.01065 5.13861 4.25472Z" fill="#006494"/>
</svg>
