<svg width="20" height="20" viewBox="0 0 20 20" fill="none" xmlns="http://www.w3.org/2000/svg">
<path fill-rule="evenodd" clip-rule="evenodd" d="M7.9965 3.45031C8.50641 1.3499 11.4936 1.3499 12.0035 3.45031C12.1332 3.9845 12.7452 4.23801 13.2146 3.95198C15.0604 2.82733 17.1727 4.93958 16.048 6.78536C15.762 7.25479 16.0155 7.86681 16.5497 7.9965C18.6501 8.50641 18.6501 11.4936 16.5497 12.0035C16.0155 12.1332 15.762 12.7452 16.048 13.2146C17.1727 15.0604 15.0604 17.1727 13.2146 16.048C12.7452 15.762 12.1332 16.0155 12.0035 16.5497C11.4936 18.6501 8.50641 18.6501 7.9965 16.5497C7.86681 16.0155 7.25479 15.762 6.78536 16.048C4.93958 17.1727 2.82733 15.0604 3.95198 13.2146C4.23801 12.7452 3.9845 12.1332 3.45031 12.0035C1.3499 11.4936 1.3499 8.50641 3.45031 7.9965C3.9845 7.86681 4.23801 7.25479 3.95198 6.78536C2.82733 4.93958 4.93958 2.82733 6.78536 3.95198C7.25479 4.23801 7.86681 3.9845 7.9965 3.45031ZM10.7888 3.74521C10.588 2.91826 9.41197 2.91827 9.21121 3.7452C8.88182 5.10205 7.3273 5.74595 6.13495 5.01944C5.40826 4.57666 4.57666 5.40826 5.01944 6.13495C5.74595 7.3273 5.10205 8.88182 3.7452 9.21121C2.91827 9.41197 2.91826 10.588 3.74521 10.7888C5.10205 11.1182 5.74595 12.6727 5.01944 13.8651C4.57666 14.5917 5.40826 15.4233 6.13495 14.9806C7.3273 14.2541 8.88182 14.898 9.21121 16.2548C9.41197 17.0817 10.588 17.0817 10.7888 16.2548C11.1182 14.898 12.6727 14.2541 13.8651 14.9806C14.5917 15.4233 15.4233 14.5917 14.9806 13.8651C14.2541 12.6727 14.898 11.1182 16.2548 10.7888C17.0817 10.588 17.0817 9.41197 16.2548 9.21121C14.898 8.88182 14.2541 7.3273 14.9806 6.13495C15.4233 5.40826 14.5917 4.57666 13.8651 5.01944C12.6727 5.74595 11.1182 5.10205 10.7888 3.74521ZM10 8.125C8.96447 8.125 8.125 8.96447 8.125 10C8.125 11.0355 8.96447 11.875 10 11.875C11.0355 11.875 11.875 11.0355 11.875 10C11.875 8.96447 11.0355 8.125 10 8.125ZM6.875 10C6.875 8.27411 8.27411 6.875 10 6.875C11.7259 6.875 13.125 8.27411 13.125 10C13.125 11.7259 11.7259 13.125 10 13.125C8.27411 13.125 6.875 11.7259 6.875 10Z" fill="#0F2B46"/>
</svg>
