<svg width="20" height="24" viewBox="0 0 20 24" fill="none" xmlns="http://www.w3.org/2000/svg">
<path fill-rule="evenodd" clip-rule="evenodd" d="M0.470474 15.6675V6.13914C0.470474 5.65791 0.72913 5.20417 1.15115 4.95668L9.31921 0.185618C9.74123 -0.0618726 10.2585 -0.0618726 10.6806 0.185618L18.8486 4.94293C19.2706 5.19042 19.5293 5.64416 19.5293 6.13914V15.6675C19.5293 16.1625 19.2706 16.6162 18.8486 16.8637L14.0766 19.6431L14.0831 19.6414L13.9572 19.7127L13.6962 19.8647C13.5181 19.9922 13.4025 20.197 13.4025 20.4251V20.8101L13.3983 20.7923L13.3901 21.9376L13.4037 24L9.38164 21.6555C9.36062 21.6446 9.3398 21.6331 9.31921 21.621L1.15115 16.8637C0.72913 16.6162 0.470474 16.1625 0.470474 15.6675ZM8.66472 6.56572C8.12018 6.02949 7.24892 6.02949 6.70438 6.56572C6.11901 7.12945 6.11901 8.06441 6.70438 8.62814C7.24892 9.16437 8.12018 9.16437 8.66472 8.62814C8.68358 8.60998 8.70183 8.59143 8.71948 8.57252L12.4503 10.7454L12.4641 10.7376C12.2981 11.2424 12.4205 11.8211 12.8315 12.2168C13.376 12.7531 14.2473 12.7531 14.7918 12.2168C15.3772 11.6531 15.3772 10.7182 14.7918 10.1544C14.2473 9.6182 13.376 9.6182 12.8315 10.1544L12.812 10.1736L9.0539 7.97215C9.18577 7.48531 9.05604 6.94256 8.66472 6.56572ZM12.7232 12.4916L9.06085 14.6287C9.18223 15.1094 9.05043 15.6407 8.66546 16.0114C8.12092 16.5477 7.24966 16.5477 6.70512 16.0114C6.11974 15.4477 6.11974 14.5128 6.70512 13.949C7.24966 13.4128 8.12092 13.4128 8.66546 13.949C8.69041 13.9731 8.71431 13.9978 8.73714 14.0231L12.0425 12.1066L12.7232 12.4916Z" fill="#0F2B46"/>
</svg>
