<svg width="642" height="542" viewBox="0 0 642 542" fill="none" xmlns="http://www.w3.org/2000/svg">
<g filter="url(#filter0_d)">
<g clip-path="url(#clip0)">
<path d="M16 16C16 11.5817 19.5817 8 24 8H618C622.418 8 626 11.5817 626 16V510C626 514.418 622.418 518 618 518H24C19.5817 518 16 514.418 16 510V16Z" fill="#F8F8F8"/>
<g filter="url(#filter1_d)">
<rect width="690" height="34" transform="translate(-64 8)" fill="white"/>
<rect x="-32" y="11" width="551" height="28" rx="14" fill="#EFF1F4"/>
<path d="M501 18.629L502.311 22.6941L502.423 23.0414L502.788 23.0406L507.059 23.0313L503.598 25.5343L503.302 25.7481L503.416 26.095L504.745 30.1543L501.295 27.6361L501 27.421L500.705 27.6361L497.255 30.1543L498.584 26.095L498.698 25.7481L498.402 25.5343L494.941 23.0313L499.212 23.0406L499.577 23.0414L499.689 22.6941L501 18.629Z" stroke="#4B4D52"/>

<!--path d="M541.467 19.8H543.333C544.364 19.8 545.2 20.6357 545.2 21.6667V23.5333H546.133C547.164 23.5333 548 24.3691 548 25.4C548 26.4309 547.164 27.2667 546.133 27.2667H545.2V29.1333C545.2 30.1643 544.364 31 543.333 31H541.467V30.0667C541.467 29.0357 540.631 28.2 539.6 28.2C538.569 28.2 537.733 29.0357 537.733 30.0667V31H535.867C534.836 31 534 30.1643 534 29.1333V27.2667H534.933C535.964 27.2667 536.8 26.4309 536.8 25.4C536.8 24.3691 535.964 23.5333 534.933 23.5333H534V21.6667C534 20.6357 534.836 19.8 535.867 19.8H537.733V18.8667C537.733 17.8357 538.569 17 539.6 17C540.631 17 541.467 17.8357 541.467 18.8667V19.8Z" fill="#606368"/-->

<path d="M22.808 27.6452C22.9544 27.6452 23.0995 27.6172 23.2348 27.5627C23.3701 27.5083 23.493 27.4285 23.5966 27.3279C23.7002 27.2273 23.7823 27.1078 23.8384 26.9764C23.8944 26.8449 23.9233 26.704 23.9233 26.5618L23.9232 20.7797C24.5182 21.0535 25.1747 21.1766 25.8318 21.1376C26.489 21.0987 27.1252 20.8989 27.6815 20.5569C28.2378 20.2149 28.696 19.7418 29.0135 19.1816C29.3311 18.6214 29.4976 17.9922 29.4976 17.3527C29.4976 16.7132 29.3311 16.0841 29.0135 15.5238C28.696 14.9636 28.2378 14.4905 27.6815 14.1485C27.1252 13.8065 26.489 13.6067 25.8318 13.5678C25.1747 13.5288 24.5182 13.6519 23.9232 13.9257L23.9233 8.14365C23.9233 8.00137 23.8944 7.86049 23.8384 7.72904C23.7823 7.59759 23.7002 7.47815 23.5966 7.37754C23.493 7.27694 23.3701 7.19713 23.2348 7.14269C23.0995 7.08824 22.9544 7.06022 22.808 7.06022L16.2982 7.06029C16.58 6.48232 16.7068 5.84451 16.6667 5.20617C16.6266 4.56784 16.4209 3.94973 16.0689 3.40934C15.7168 2.86895 15.2298 2.42383 14.6531 2.11539C14.0764 1.80695 13.4288 1.6452 12.7704 1.6452C12.1121 1.6452 11.4645 1.80695 10.8878 2.11539C10.3111 2.42383 9.82404 2.86895 9.47199 3.40934C9.11993 3.94973 8.91429 4.56784 8.87419 5.20617C8.83409 5.84451 8.96083 6.48232 9.24262 7.06029L2.73291 7.06022C2.43711 7.06022 2.15344 7.17436 1.94428 7.37754C1.73512 7.58072 1.61761 7.85629 1.61761 8.14363L1.61753 13.9257C2.21251 13.6519 2.86908 13.5288 3.52619 13.5678C4.18329 13.6067 4.81959 13.8065 5.37587 14.1485C5.93216 14.4905 6.39037 14.9636 6.70789 15.5238C7.0254 16.0841 7.1919 16.7132 7.1919 17.3527C7.1919 17.9922 7.0254 18.6214 6.70789 19.1816C6.39037 19.7418 5.93216 20.2149 5.37587 20.5569C4.81959 20.8989 4.18329 21.0987 3.52619 21.1376C2.86908 21.1766 2.21251 21.0535 1.61753 20.7797L1.61761 26.5618C1.61761 26.8491 1.73511 27.1247 1.94427 27.3279C2.15343 27.5311 2.4371 27.6452 2.73289 27.6452L22.808 27.6452Z" transform="translate(530 16) scale(0.57)" stroke="#4c4357" stroke-width="3" stroke-linecap="round" stroke-linejoin="round"/>

<rect width="28" height="28" transform="translate(559 11)" fill="white"/>

<path d="M573 13C566.376 13 561 18.376 561 25C561 31.624 566.376 37 573 37C579.624 37 585 31.624 585 25C585 18.376 579.624 13 573 13ZM580.632 30.796C578.916 28.708 574.752 28 573 28C571.248 28 567.084 28.708 565.368 30.796C564.144 29.188 563.4 27.184 563.4 25C563.4 19.708 567.708 15.4 573 15.4C578.292 15.4 582.6 19.708 582.6 25C582.6 27.184 581.856 29.188 580.632 30.796ZM573 17.8C570.672 17.8 568.8 19.672 568.8 22C568.8 24.328 570.672 26.2 573 26.2C575.328 26.2 577.2 24.328 577.2 22C577.2 19.672 575.328 17.8 573 17.8Z" fill="#B6B9BE"/>
<path d="M607 20.5C607 21.3284 606.328 22 605.5 22C604.672 22 604 21.3284 604 20.5C604 19.6716 604.672 19 605.5 19C606.328 19 607 19.6716 607 20.5Z" fill="#5F646A"/>
<path d="M607 25.5C607 26.3284 606.328 27 605.5 27C604.672 27 604 26.3284 604 25.5C604 24.6716 604.672 24 605.5 24C606.328 24 607 24.6716 607 25.5Z" fill="#5F646A"/>
<path d="M607 30.5C607 31.3284 606.328 32 605.5 32C604.672 32 604 31.3284 604 30.5C604 29.6716 604.672 29 605.5 29C606.328 29 607 29.6716 607 30.5Z" fill="#5F646A"/>
</g>
</g>
</g>
<defs>
<filter id="filter0_d" x="0" y="0" width="642" height="542" filterUnits="userSpaceOnUse" color-interpolation-filters="sRGB">
<feFlood flood-opacity="0" result="BackgroundImageFix"/>
<feColorMatrix in="SourceAlpha" type="matrix" values="0 0 0 0 0 0 0 0 0 0 0 0 0 0 0 0 0 0 127 0"/>
<feOffset dy="8"/>
<feGaussianBlur stdDeviation="8"/>
<feColorMatrix type="matrix" values="0 0 0 0 0 0 0 0 0 0 0 0 0 0 0 0 0 0 0.16 0"/>
<feBlend mode="normal" in2="BackgroundImageFix" result="effect1_dropShadow"/>
<feBlend mode="normal" in="SourceGraphic" in2="effect1_dropShadow" result="shape"/>
</filter>
<filter id="filter1_d" x="-64" y="8" width="690" height="35" filterUnits="userSpaceOnUse" color-interpolation-filters="sRGB">
<feFlood flood-opacity="0" result="BackgroundImageFix"/>
<feColorMatrix in="SourceAlpha" type="matrix" values="0 0 0 0 0 0 0 0 0 0 0 0 0 0 0 0 0 0 127 0"/>
<feOffset dy="1"/>
<feColorMatrix type="matrix" values="0 0 0 0 0 0 0 0 0 0 0 0 0 0 0 0 0 0 0.06 0"/>
<feBlend mode="normal" in2="BackgroundImageFix" result="effect1_dropShadow"/>
<feBlend mode="normal" in="SourceGraphic" in2="effect1_dropShadow" result="shape"/>
</filter>
<clipPath id="clip0">
<path d="M16 16C16 11.5817 19.5817 8 24 8H618C622.418 8 626 11.5817 626 16V510C626 514.418 622.418 518 618 518H24C19.5817 518 16 514.418 16 510V16Z" fill="white"/>
</clipPath>
</defs>
</svg>
