<svg width="79" height="74" viewBox="0 0 79 74" fill="none" xmlns="http://www.w3.org/2000/svg">
<g clip-path="url(#clip0_3622_13169)">
<path d="M75.6324 0H21.7397C19.8798 0 18.3721 1.51823 18.3721 3.39106V18.5L49.6046 27.75L79 18.5V3.39106C79 1.51823 77.4922 0 75.6324 0Z" fill="#41A5EE"/>
<path d="M79 18.5H18.3721V37L49.6046 42.55L79 37V18.5Z" fill="#2B7CD3"/>
<path d="M18.3721 37V55.5L47.7674 59.2L79 55.5V37H18.3721Z" fill="#185ABD"/>
<path d="M21.7397 74H75.6324C77.4923 74 79 72.4818 79 70.6089V55.5H18.3721V70.6089C18.3721 72.4818 19.8798 74 21.7397 74Z" fill="#103F91"/>
<path opacity="0.1" d="M40.7254 14.7998H18.3721V61.0498H40.7254C42.5828 61.0437 44.087 59.529 44.093 57.6587V18.1909C44.087 16.3206 42.5828 14.8059 40.7254 14.7998Z" fill="black"/>
<path opacity="0.2" d="M38.8882 16.6504H18.3721V62.9004H38.8882C40.7455 62.8943 42.2497 61.3796 42.2558 59.5093V20.0415C42.2497 18.1712 40.7455 16.6565 38.8882 16.6504Z" fill="black"/>
<path opacity="0.2" d="M38.8882 16.6504H18.3721V59.2004H38.8882C40.7455 59.1943 42.2497 57.6796 42.2558 55.8093V20.0415C42.2497 18.1712 40.7455 16.6565 38.8882 16.6504Z" fill="black"/>
<path opacity="0.2" d="M37.051 16.6504H18.3721V59.2004H37.051C38.9083 59.1943 40.4125 57.6796 40.4186 55.8093V20.0415C40.4125 18.1712 38.9083 16.6565 37.051 16.6504Z" fill="black"/>
<path d="M3.36762 16.6504H37.051C38.9109 16.6504 40.4186 18.1686 40.4186 20.0415V53.9594C40.4186 55.8322 38.9109 57.3504 37.051 57.3504H3.36762C1.50773 57.3504 0 55.8322 0 53.9594V20.0415C0 18.1686 1.50773 16.6504 3.36762 16.6504Z" fill="url(#paint0_linear_3622_13169)"/>
<path d="M13.8195 42.6577C13.8856 43.1812 13.9297 43.6364 13.9499 44.0267H14.027C14.0564 43.6567 14.1176 43.2108 14.2107 42.6892C14.3038 42.1674 14.3877 41.7265 14.4625 41.3664L18.0046 25.9781H22.5848L26.2592 41.1352C26.4727 42.0776 26.6255 43.033 26.7167 43.9952H26.7773C26.8458 43.063 26.9735 42.1361 27.1594 41.2202L30.0898 25.9707H34.2584L29.1105 48.0227H24.2401L20.7494 33.4188C20.6484 32.9988 20.5326 32.4494 20.4059 31.7741C20.2791 31.0989 20.2001 30.6049 20.1688 30.2941H20.1082C20.0678 30.653 19.9888 31.1858 19.8712 31.8925C19.7536 32.5992 19.6593 33.1221 19.5882 33.4613L16.307 48.019H11.3539L6.17847 25.9781H10.4224L13.6136 41.3978C13.6853 41.7142 13.7533 42.136 13.8195 42.6577Z" fill="white"/>
</g>
<defs>
<linearGradient id="paint0_linear_3622_13169" x1="7.02153" y1="14.0007" x2="33.6725" y2="59.8399" gradientUnits="userSpaceOnUse">
<stop stop-color="#2368C4"/>
<stop offset="0.5" stop-color="#1A5DBE"/>
<stop offset="1" stop-color="#1146AC"/>
</linearGradient>
<clipPath id="clip0_3622_13169">
<rect width="79" height="74" fill="white"/>
</clipPath>
</defs>
</svg>
